<svg viewBox="0 0 512 512" xmlns="http://www.w3.org/2000/svg"><g fill-rule="evenodd"><path d="m471.95 253.05c0 120.9-98.01 218.91-218.91 218.91s-218.91-98.01-218.91-218.91 98.01-218.91 218.91-218.91 218.91 98.01 218.91 218.91" fill="#4ea92b"/><path d="m256 1c-140.83 0-255 114.17-255 255s114.17 255 255 255 255-114.17 255-255-114.17-255-255-255m8.827 44.931c120.9 0 218.9 98 218.9 218.9s-98 218.9-218.9 218.9-218.93-98-218.93-218.9 98.03-218.9 218.93-218.9" fill-opacity=".067"/><g fill-opacity=".129"><path d="m256 4.43c-138.94 0-251.57 112.63-251.57 251.57s112.63 251.57 251.57 251.57 251.57-112.63 251.57-251.57-112.63-251.57-251.57-251.57m5.885 38.556c120.9 0 218.9 98 218.9 218.9s-98 218.9-218.9 218.9-218.93-98-218.93-218.9 98.03-218.9 218.93-218.9"/><path d="m256 8.36c-136.77 0-247.64 110.87-247.64 247.64s110.87 247.64 247.64 247.64 247.64-110.87 247.64-247.64-110.87-247.64-247.64-247.64m2.942 31.691c120.9 0 218.9 98 218.9 218.9s-98 218.9-218.9 218.9-218.93-98-218.93-218.9 98.03-218.9 218.93-218.9"/></g><path d="m253.04 7.86c-135.42 0-245.19 109.78-245.19 245.19 0 135.42 109.78 245.19 245.19 245.19 135.42 0 245.19-109.78 245.19-245.19 0-135.42-109.78-245.19-245.19-245.19zm0 26.297c120.9 0 218.9 98 218.9 218.9s-98 218.9-218.9 218.9-218.93-98-218.93-218.9 98.03-218.9 218.93-218.9z" fill="#fff" stroke="#000" stroke-opacity=".31" stroke-width="4.904"/></g><text x="729.64001" y="231.36"><tspan x="729.64001" y="231.36"/></text><text transform="scale(4.0128 .2492)" x="378.91" y="579.26001"/><text x="1310.91" y="151.36"><tspan x="1310.91" y="151.36"/></text><text transform="scale(4.0128 .2492)" x="523.76001" y="258.22"/><text x="239.33" y="-29.9"><tspan x="239.33" y="-29.9"/></text><text transform="scale(4.0128 .2492)" x="256.72" y="-469.13"/><text x="1337.38" y="-246.37"><tspan x="1337.38" y="-246.37"/></text><text transform="scale(4.0128 .2492)" x="530.35999" y="-1337.8"/><text x="1918.65" y="-326.37"><tspan x="1918.65" y="-326.37"/></text><text transform="scale(4.0128 .2492)" x="675.21002" y="-1658.83"/><text x="1529.53" y="-798.77002"><tspan x="1529.53" y="-798.77002"/></text><text transform="scale(4.0128 .2492)" x="578.23999" y="-3554.48"/><text x="2110.79" y="-878.78003"><tspan x="2110.79" y="-878.78003"/></text><text transform="scale(4.0128 .2492)" x="723.09003" y="-3875.52"/><text x="277.98999" y="535.94"><tspan x="277.98999" y="535.94"/></text><path d="m139.56 113.59-46.5 75.38 11.531 11.531h-11.53l153.94 197.91 65.41 65.41c92.05-25.877 159.53-110.43 159.53-210.75 0-15.247-1.564-30.13-4.531-44.5l-94.97-94.97-4.469 7.25-7.25-7.25h-93l18.875 30.594-30.594-30.594-4.469 7.25-7.25-7.25h-93l18.875 30.594-30.594-30.594" opacity=".25"/><path d="m139.57 113.6-46.51 75.36h93.18l-46.68-75.36m11.711 0 46.51 75.36 46.51-75.36h-93.01m104.72 0-46.51 75.36h93.01l-46.51-75.36m11.711 0 46.51 75.36 46.51-75.36h-93.01m104.72 0-46.675 75.36h93.18l-46.51-75.36m-279.37 86.9 153.94 197.9-54.99-197.9zm110.49 0 52.45 197.9 52.45-197.9h-104.89m116.43 0-54.992 197.9 153.94-197.9h-98.95" fill="#fff"/></svg>